<svg xmlns="http://www.w3.org/2000/svg" xmlns:xlink="http://www.w3.org/1999/xlink" xmlns:lucid="lucid" width="600" height="1180"><g transform="translate(-120 0)" lucid:page-tab-id="0_0"><path d="M0 0h1870.4v1323.2H0z" fill="#fff"/><path d="M280 20h280v100H280z" stroke="#000" stroke-width="2" fill="#e5e5e5"/><use xlink:href="#a" transform="matrix(1,0,0,1,285,25) translate(0 26.681)"/><use xlink:href="#b" transform="matrix(1,0,0,1,285,25) translate(0 52.281000000000006)"/><use xlink:href="#c" transform="matrix(1,0,0,1,285,25) translate(34.24 52.281000000000006)"/><use xlink:href="#d" transform="matrix(1,0,0,1,285,25) translate(0 77.881)"/><use xlink:href="#e" transform="matrix(1,0,0,1,285,25) translate(97.79200000000003 77.881)"/><use xlink:href="#f" transform="matrix(1,0,0,1,285,25) translate(207.74400000000003 77.881)"/><path d="M420 122v18.5" stroke="#000" stroke-width="2" fill="none"/><path d="M421 122.03h-2V121h2z"/><path d="M420 155.76l-4.64-14.26h9.28z" stroke="#000" stroke-width="2"/><path d="M280 160h280v100H280z" stroke="#000" stroke-width="2" fill="#ffeca9"/><use xlink:href="#g" transform="matrix(1,0,0,1,285,165) translate(0 26.681)"/><use xlink:href="#h" transform="matrix(1,0,0,1,285,165) translate(0 52.281000000000006)"/><use xlink:href="#i" transform="matrix(1,0,0,1,285,165) translate(31.157333333333337 52.281000000000006)"/><use xlink:href="#j" transform="matrix(1,0,0,1,285,165) translate(0 77.881)"/><use xlink:href="#k" transform="matrix(1,0,0,1,285,165) translate(68.736 77.881)"/><use xlink:href="#l" transform="matrix(1,0,0,1,285,165) translate(90.17600000000002 77.881)"/><use xlink:href="#m" transform="matrix(1,0,0,1,285,165) translate(161.04533333333336 77.881)"/><path d="M420 262v18.5" stroke="#000" stroke-width="2" fill="none"/><path d="M421 262.03h-2V261h2z"/><path d="M420 295.76l-4.64-14.26h9.28z" stroke="#000" stroke-width="2"/><path d="M280 300h280v100H280z" stroke="#000" stroke-width="2" fill="#ffeca9"/><use xlink:href="#n" transform="matrix(1,0,0,1,285,305) translate(0 26.681)"/><use xlink:href="#h" transform="matrix(1,0,0,1,285,305) translate(0 52.281000000000006)"/><use xlink:href="#i" transform="matrix(1,0,0,1,285,305) translate(31.157333333333337 52.281000000000006)"/><use xlink:href="#o" transform="matrix(1,0,0,1,285,305) translate(0 77.881)"/><use xlink:href="#p" transform="matrix(1,0,0,1,285,305) translate(109.95200000000001 77.881)"/><use xlink:href="#q" transform="matrix(1,0,0,1,285,305) translate(174.82666666666668 77.881)"/><path d="M420 402v18.5" stroke="#000" stroke-width="2" fill="none"/><path d="M421 402.03h-2V401h2z"/><path d="M420 435.76l-4.64-14.26h9.28z" stroke="#000" stroke-width="2"/><path d="M280 440h280v100H280z" stroke="#000" stroke-width="2" fill="#ffeca9"/><use xlink:href="#g" transform="matrix(1,0,0,1,285,445) translate(0 26.681)"/><use xlink:href="#h" transform="matrix(1,0,0,1,285,445) translate(0 52.281000000000006)"/><use xlink:href="#r" transform="matrix(1,0,0,1,285,445) translate(31.157333333333337 52.281000000000006)"/><use xlink:href="#j" transform="matrix(1,0,0,1,285,445) translate(0 77.881)"/><use xlink:href="#s" transform="matrix(1,0,0,1,285,445) translate(68.736 77.881)"/><use xlink:href="#t" transform="matrix(1,0,0,1,285,445) translate(109.99466666666667 77.881)"/><path d="M420 542v18.5" stroke="#000" stroke-width="2" fill="none"/><path d="M421 542.03h-2V541h2z"/><path d="M420 575.76l-4.64-14.26h9.28z" stroke="#000" stroke-width="2"/><path d="M280 580h280v100H280z" stroke="#000" stroke-width="2" fill="#ffeca9"/><g><use xlink:href="#g" transform="matrix(1,0,0,1,285,585) translate(0 26.681)"/><use xlink:href="#h" transform="matrix(1,0,0,1,285,585) translate(0 52.281000000000006)"/><use xlink:href="#u" transform="matrix(1,0,0,1,285,585) translate(31.157333333333337 52.281000000000006)"/><use xlink:href="#v" transform="matrix(1,0,0,1,285,585) translate(0 77.881)"/><use xlink:href="#s" transform="matrix(1,0,0,1,285,585) translate(68.736 77.881)"/><use xlink:href="#t" transform="matrix(1,0,0,1,285,585) translate(109.99466666666667 77.881)"/></g><path d="M420 682v18.5" stroke="#000" stroke-width="2" fill="none"/><path d="M421 682.03h-2V681h2z"/><path d="M420 715.76l-4.64-14.26h9.28z" stroke="#000" stroke-width="2"/><path d="M140 720h560v120H140z" stroke="#000" stroke-width="2" fill="#ffeca9"/><g><use xlink:href="#g" transform="matrix(1,0,0,1,145,725) translate(0 21.056)"/><use xlink:href="#h" transform="matrix(1,0,0,1,145,725) translate(0 46.656000000000006)"/><use xlink:href="#w" transform="matrix(1,0,0,1,145,725) translate(31.157333333333337 46.656000000000006)"/><use xlink:href="#x" transform="matrix(1,0,0,1,145,725) translate(53.482666666666674 46.656000000000006)"/><use xlink:href="#y" transform="matrix(1,0,0,1,145,725) translate(0 72.256)"/><use xlink:href="#z" transform="matrix(1,0,0,1,145,725) translate(23.872000000000003 72.256)"/><use xlink:href="#A" transform="matrix(1,0,0,1,145,725) translate(138.4746666666667 72.256)"/><use xlink:href="#B" transform="matrix(1,0,0,1,145,725) translate(209.53600000000006 72.256)"/><use xlink:href="#C" transform="matrix(1,0,0,1,145,725) translate(271.4240000000001 72.256)"/><use xlink:href="#D" transform="matrix(1,0,0,1,145,725) translate(295.36000000000007 72.256)"/><use xlink:href="#E" transform="matrix(1,0,0,1,145,725) translate(338.85866666666675 72.256)"/><use xlink:href="#F" transform="matrix(1,0,0,1,145,725) translate(363.43466666666677 72.256)"/><use xlink:href="#G" transform="matrix(1,0,0,1,145,725) translate(439.74400000000014 72.256)"/><use xlink:href="#H" transform="matrix(1,0,0,1,145,725) translate(0 97.85600000000001)"/><use xlink:href="#I" transform="matrix(1,0,0,1,145,725) translate(23.872000000000003 97.85600000000001)"/><use xlink:href="#J" transform="matrix(1,0,0,1,145,725) translate(108.56533333333336 97.85600000000001)"/><use xlink:href="#K" transform="matrix(1,0,0,1,145,725) translate(166.4426666666667 97.85600000000001)"/><use xlink:href="#L" transform="matrix(1,0,0,1,145,725) translate(210.0266666666667 97.85600000000001)"/></g><path d="M260 881h320v138H260z" stroke="#000" stroke-width="2" fill="#e5e5e5"/><g><use xlink:href="#M" transform="matrix(1,0,0,1,265,886) translate(0 33.056)"/><use xlink:href="#N" transform="matrix(1,0,0,1,265,886) translate(0 58.656000000000006)"/><use xlink:href="#O" transform="matrix(1,0,0,1,265,886) translate(0 84.256)"/><use xlink:href="#P" transform="matrix(1,0,0,1,265,886) translate(23.306666666666672 84.256)"/><use xlink:href="#Q" transform="matrix(1,0,0,1,265,886) translate(81.58933333333336 84.256)"/><use xlink:href="#e" transform="matrix(1,0,0,1,265,886) translate(128.67200000000003 84.256)"/><use xlink:href="#R" transform="matrix(1,0,0,1,265,886) translate(238.62400000000002 84.256)"/><use xlink:href="#H" transform="matrix(1,0,0,1,265,886) translate(0 109.85600000000001)"/><use xlink:href="#S" transform="matrix(1,0,0,1,265,886) translate(23.872000000000003 109.85600000000001)"/><use xlink:href="#I" transform="matrix(1,0,0,1,265,886) translate(106.04800000000002 109.85600000000001)"/><use xlink:href="#T" transform="matrix(1,0,0,1,265,886) translate(190.7413333333334 109.85600000000001)"/><use xlink:href="#U" transform="matrix(1,0,0,1,265,886) translate(246.57066666666674 109.85600000000001)"/></g><path d="M140 1060h560v100H140z" stroke="#000" stroke-width="2" fill="#c7e8ac"/><g><use xlink:href="#V" transform="matrix(1,0,0,1,145,1065) translate(0 26.7435)"/><use xlink:href="#y" transform="matrix(1,0,0,1,145,1065) translate(0 52.343500000000006)"/><use xlink:href="#W" transform="matrix(1,0,0,1,145,1065) translate(23.872000000000003 52.343500000000006)"/><use xlink:href="#e" transform="matrix(1,0,0,1,145,1065) translate(81.64266666666668 52.343500000000006)"/><use xlink:href="#X" transform="matrix(1,0,0,1,145,1065) translate(191.59466666666668 52.343500000000006)"/><use xlink:href="#H" transform="matrix(1,0,0,1,145,1065) translate(0 77.9435)"/><use xlink:href="#I" transform="matrix(1,0,0,1,145,1065) translate(23.872000000000003 77.9435)"/><use xlink:href="#T" transform="matrix(1,0,0,1,145,1065) translate(108.56533333333336 77.9435)"/><use xlink:href="#Y" transform="matrix(1,0,0,1,145,1065) translate(164.3946666666667 77.9435)"/><use xlink:href="#B" transform="matrix(1,0,0,1,145,1065) translate(202.4746666666667 77.9435)"/><use xlink:href="#C" transform="matrix(1,0,0,1,145,1065) translate(264.3626666666667 77.9435)"/><use xlink:href="#Z" transform="matrix(1,0,0,1,145,1065) translate(288.2986666666667 77.9435)"/><use xlink:href="#aa" transform="matrix(1,0,0,1,145,1065) translate(389.88800000000003 77.9435)"/><use xlink:href="#ab" transform="matrix(1,0,0,1,145,1065) translate(421.2053333333334 77.9435)"/></g><path d="M420 842v19.5" stroke="#000" stroke-width="2" fill="none"/><path d="M421 842.03h-2V841h2z"/><path d="M420 876.76l-4.64-14.26h9.28z" stroke="#000" stroke-width="2"/><path d="M420 1021v19.5" stroke="#000" stroke-width="2" fill="none"/><path d="M421 1021.03h-2V1020h2z"/><path d="M420 1055.76l-4.64-14.26h9.28z" stroke="#000" stroke-width="2"/><defs><path fill-opacity=".75" d="M225-206c179 0 234-119 234-302v-938h269v932C723-187 579 16 253 16 172 16 108 6 38-11l14-160c12-81 103-35 173-35" id="ac"/><path fill-opacity=".75" d="M449 0H179v-1446h270V0" id="ad"/><path fill-opacity=".75" d="M1153-1030c0 232-137 352-319 413 34 19 63 47 88 83L1284 0h-242c-51 0-80-22-101-54L637-517c-24-34-42-48-98-48H424V0H155v-1446h441c324 4 557 105 557 416zm-263 20c0-163-114-229-294-228H424v480h168c180-3 298-77 298-252" id="ae"/><path fill-opacity=".75" d="M1417 0h-208c-47 1-77-28-90-61l-108-295H412L304-61c-11 30-46 61-89 61H6l568-1446h275zM481-546h461c-77-218-163-424-231-651-66 230-154 432-230 651" id="af"/><g id="a"><use transform="matrix(0.010666666666666668,0,0,0.010666666666666668,0,0)" xlink:href="#ac"/><use transform="matrix(0.010666666666666668,0,0,0.010666666666666668,9.322666666666668,0)" xlink:href="#ad"/><use transform="matrix(0.010666666666666668,0,0,0.010666666666666668,16.021333333333338,0)" xlink:href="#ae"/><use transform="matrix(0.010666666666666668,0,0,0.010666666666666668,29.994666666666674,0)" xlink:href="#af"/></g><path fill-opacity=".75" d="M684-1433c273 2 445 115 445 380 0 337-213 506-555 515H366L300 0H114l175-1433h395zm257 397c0-170-102-250-275-250H458l-74 600h208c224-5 349-129 349-350" id="ag"/><path fill-opacity=".75" d="M820-500c8 28 15 52 22 81 12-28 26-55 42-81l563-901c26-56 134-23 207-32L1478 0h-164c46-367 90-737 138-1102 3-15 6-31 9-48L904-252c-25 56-138 63-162 0l-345-900c-1 30-2 62-5 90L262 0H97l177-1433c57 2 126-5 176 5 10 2 18 12 23 27" id="ah"/><g id="b"><use transform="matrix(0.010666666666666668,0,0,0.010666666666666668,0,0)" xlink:href="#ag"/><use transform="matrix(0.010666666666666668,0,0,0.010666666666666668,12.032000000000002,0)" xlink:href="#ah"/></g><path fill-opacity=".75" d="M282-1014c58-5 61 46 57 101l-14 184c43-93 91-166 145-216 77-71 153-97 254-58l-32 171c-112-42-192-12-264 76-51 63-111 154-127 286L245 0H71l122-1014h89" id="ai"/><path fill-opacity=".75" d="M313 14C119 14 48-141 48-343c0-285 144-462 316-587 132-96 395-132 573-50L816 0h-92c-44 1-63-24-60-62l18-205C618-155 540-56 419-6c-34 13-69 20-106 20zm438-903c-292-39-444 147-509 379-12 43-16 89-16 135 0 210 112 297 250 211 119-74 212-218 232-377" id="aj"/><path fill-opacity=".75" d="M392-1013L270 0H95l122-1013h175zm-56-446c74 0 123 53 123 128 0 74-51 126-124 126-72 0-120-53-120-126 0-74 49-128 121-128" id="ak"/><path fill-opacity=".75" d="M234-125c148 44 312-21 304-171-8-157-208-144-311-214-59-40-114-89-109-188 11-210 152-324 370-330 127-3 216 48 280 113-20 26-37 59-61 81-37 18-63-16-91-30-36-18-80-37-139-36-114 4-202 52-202 161 0 112 124 127 211 163 105 44 210 92 210 239 0 170-102 272-230 324-97 40-243 39-334-5-49-24-91-53-122-89 28-37 58-129 123-81 29 21 58 50 101 63" id="al"/><path fill-opacity=".75" d="M585-1027c169 0 296 78 296 231 0 199-149 250-324 299-84 24-192 40-324 53-23 223 97 359 319 308 85-19 134-74 196-113 57-36 83 37 109 62C749-79 641 14 432 14 183 14 59-146 59-397c0-248 100-426 245-537 71-54 163-93 281-93zm121 307c48-99-21-186-131-179-202 12-279 166-325 337 166-21 286-42 390-96 34-18 55-40 66-62" id="am"/><g id="c"><use transform="matrix(0.010666666666666668,0,0,0.010666666666666668,0,0)" xlink:href="#ai"/><use transform="matrix(0.010666666666666668,0,0,0.010666666666666668,7.061333333333335,0)" xlink:href="#aj"/><use transform="matrix(0.010666666666666668,0,0,0.010666666666666668,17.83466666666667,0)" xlink:href="#ak"/><use transform="matrix(0.010666666666666668,0,0,0.010666666666666668,23.029333333333337,0)" xlink:href="#al"/><use transform="matrix(0.010666666666666668,0,0,0.010666666666666668,31.328000000000003,0)" xlink:href="#am"/><use transform="matrix(0.010666666666666668,0,0,0.010666666666666668,41.16266666666667,0)" xlink:href="#al"/></g><path fill-opacity=".75" d="M1365-1009c68 170 68 416 0 586C1264-171 1053 0 710 0H174v-1433h536c343 5 555 172 655 424zM710-157c338-11 507-216 507-559s-169-560-507-560H369v1119h341" id="an"/><path fill-opacity=".75" d="M344-1013V0H166v-1013h178zm-88-446c77 0 128 52 128 128 0 75-52 126-128 126-75 0-126-51-126-126 0-76 50-128 126-128" id="ao"/><path fill-opacity=".75" d="M409-112c121-3 207-52 207-167 0-134-157-142-264-181-133-48-263-98-263-275 0-197 153-290 360-294 139-3 243 49 317 118-26 35-46 114-111 76-53-31-114-63-202-61-108 3-195 44-195 147 0 129 158 136 262 175 128 48 263 93 263 264C783-89 627 12 400 16 255 19 139-39 62-107c27-41 57-128 128-81 57 38 118 78 219 76" id="ap"/><path fill-opacity=".75" d="M895-142C799-8 539 62 344-21 173-94 74-262 74-507c0-317 160-522 477-522 151 0 254 54 333 132-21 26-39 58-63 81-42 20-68-19-100-34-42-20-91-42-160-40-219 6-304 160-304 383 0 220 82 376 295 383 106 4 169-38 223-84 22-19 53-21 70 1" id="aq"/><path fill-opacity=".75" d="M1038-507c0 321-164 521-482 521S72-187 72-507c0-248 107-410 284-485 60-25 126-37 200-37 317 0 482 201 482 522zm-782 1c0 225 80 381 300 381 213 0 298-159 298-381 0-223-84-383-298-383-221 0-300 158-300 383" id="ar"/><path fill-opacity=".75" d="M18-1013h146c28-1 47 18 55 37l257 652c18 45 27 93 37 143 12-50 22-98 40-143l260-652c17-60 123-30 192-37L592 0H431" id="as"/><path fill-opacity=".75" d="M954-142C850-8 572 61 364-22 180-96 74-268 74-527c0-234 108-389 275-463 59-26 125-39 198-39 273 0 420 174 420 453 0 48-2 70-43 70H250c8 226 98 375 322 380 114 2 191-38 258-82 70-46 94 37 124 66zM807-617c-5-171-86-278-256-281-181-3-273 116-295 281h551" id="at"/><path fill-opacity=".75" d="M584-856c-148 6-210 94-260 211V0H146v-1013c62 7 151-25 157 49l12 158c66-138 184-259 384-216 23 5 44 16 63 27l-23 133c-5 17-15 25-31 25-36 0-71-21-124-19" id="au"/><path fill-opacity=".75" d="M443 299c-13 26-25 44-64 44H247L432-59 14-1013h154c30-1 46 18 55 37 95 228 197 450 287 682 6 14 8 30 11 45 10-32 18-60 30-90l263-637c18-60 124-30 194-37" id="av"/><g id="d"><use transform="matrix(0.010666666666666668,0,0,0.010666666666666668,0,0)" xlink:href="#an"/><use transform="matrix(0.010666666666666668,0,0,0.010666666666666668,16.064000000000004,0)" xlink:href="#ao"/><use transform="matrix(0.010666666666666668,0,0,0.010666666666666668,21.525333333333336,0)" xlink:href="#ap"/><use transform="matrix(0.010666666666666668,0,0,0.010666666666666668,30.784000000000002,0)" xlink:href="#aq"/><use transform="matrix(0.010666666666666668,0,0,0.010666666666666668,40.74666666666667,0)" xlink:href="#ar"/><use transform="matrix(0.010666666666666668,0,0,0.010666666666666668,52.33066666666667,0)" xlink:href="#as"/><use transform="matrix(0.010666666666666668,0,0,0.010666666666666668,62.97600000000002,0)" xlink:href="#at"/><use transform="matrix(0.010666666666666668,0,0,0.010666666666666668,74.15466666666669,0)" xlink:href="#au"/><use transform="matrix(0.010666666666666668,0,0,0.010666666666666668,82.75200000000002,0)" xlink:href="#av"/></g><path fill-opacity=".75" d="M550-887c-107 0-172 65-226 132V0H146v-1013c60 6 147-22 154 37l13 104c69-80 148-156 287-157 148-1 223 92 258 211 51-126 153-211 323-211 232 0 338 149 338 384V0h-178v-645c1-148-62-242-203-242-142 0-218 94-218 242V0H742v-645c1-149-54-242-192-242" id="aw"/><path fill-opacity=".75" d="M602 14c-133 0-212-47-278-119v448H146v-1356c60 6 147-22 154 37l15 120c80-93 179-175 341-175 282 0 383 224 383 518 0 237-92 406-253 487-54 27-116 40-184 40zm253-527c-3-212-53-374-258-374-136 0-207 69-273 153v490c57 77 121 120 238 120 207 0 295-164 293-389" id="ax"/><path fill-opacity=".75" d="M598-887c-125 2-207 68-274 141V0H146v-1013c60 6 147-22 154 37l14 110c82-87 177-163 336-163 232 0 339 151 339 384V0H811v-645c0-149-65-244-213-242" id="ay"/><path fill-opacity=".75" d="M698-76c-54 52-145 92-245 92-162 1-249-96-249-260v-620c-58-9-160 26-160-39v-71l166-21 41-313c4-50 80-30 131-34v349h290v129H382v608c-2 78 40 125 111 126 60 2 88-33 128-48 9 0 18 6 25 17" id="az"/><g id="e"><use transform="matrix(0.010666666666666668,0,0,0.010666666666666668,0,0)" xlink:href="#aq"/><use transform="matrix(0.010666666666666668,0,0,0.010666666666666668,9.962666666666667,0)" xlink:href="#ar"/><use transform="matrix(0.010666666666666668,0,0,0.010666666666666668,21.824,0)" xlink:href="#aw"/><use transform="matrix(0.010666666666666668,0,0,0.010666666666666668,39.33866666666667,0)" xlink:href="#ax"/><use transform="matrix(0.010666666666666668,0,0,0.010666666666666668,51.11466666666667,0)" xlink:href="#ar"/><use transform="matrix(0.010666666666666668,0,0,0.010666666666666668,62.976000000000006,0)" xlink:href="#ay"/><use transform="matrix(0.010666666666666668,0,0,0.010666666666666668,74.83733333333333,0)" xlink:href="#at"/><use transform="matrix(0.010666666666666668,0,0,0.010666666666666668,86.016,0)" xlink:href="#ay"/><use transform="matrix(0.010666666666666668,0,0,0.010666666666666668,97.87733333333334,0)" xlink:href="#az"/></g><path fill-opacity=".75" d="M331-1473v867c49 0 82 0 108-28l320-343c20-19 33-36 70-36h162C858-871 723-729 590-586c-9 9-19 16-30 23 25 17 41 39 60 63L1016 0c-81-8-184 18-227-35L456-450c-21-27-31-33-75-34h-50V0H152v-1473h179" id="aA"/><g id="f"><use transform="matrix(0.010666666666666668,0,0,0.010666666666666668,0,0)" xlink:href="#az"/><use transform="matrix(0.010666666666666668,0,0,0.010666666666666668,7.9573333333333345,0)" xlink:href="#ao"/><use transform="matrix(0.010666666666666668,0,0,0.010666666666666668,13.418666666666669,0)" xlink:href="#aq"/><use transform="matrix(0.010666666666666668,0,0,0.010666666666666668,23.381333333333338,0)" xlink:href="#aA"/><use transform="matrix(0.010666666666666668,0,0,0.010666666666666668,33.92,0)" xlink:href="#at"/><use transform="matrix(0.010666666666666668,0,0,0.010666666666666668,45.098666666666674,0)" xlink:href="#az"/></g><path fill-opacity=".75" d="M1177-1061c0 181-116 262-257 314 199 45 298 152 298 322C1218-130 997 0 692 0H146v-1446h499c307 3 532 89 532 385zM952-431c0-152-108-202-265-203H415v424h273c163-1 264-65 264-221zm-43-598c0-163-94-209-264-209H415v418h215c168-1 279-50 279-209" id="aB"/><path fill-opacity=".75" d="M519-204c146 0 246-70 241-211-6-175-195-185-333-232-183-63-339-153-333-400 5-199 120-319 272-380 126-51 311-44 437 5 72 27 133 64 184 112l-66 127c-15 40-64 51-105 25-64-41-136-87-246-85-132 3-224 54-224 182 0 167 202 176 334 227 173 67 333 144 333 381 0 227-120 364-289 433-138 56-353 39-478-16-80-35-154-80-210-138l78-129c23-34 74-43 115-13 73 54 157 112 290 112" id="aC"/><path fill-opacity=".75" d="M1165-1446v221H730V0H461v-1225H24v-221h1141" id="aD"/><path fill-opacity=".75" d="M1284-209C1170-69 1008 19 759 16c-347-4-553-182-649-442-66-178-66-423 6-596 108-261 330-435 688-440 220-3 375 79 488 188l-90 125c-16 32-68 39-102 12-71-55-162-101-298-96-304 11-465 201-465 510 0 241 101 401 267 477 125 58 330 39 424-24 42-17 97-111 150-54" id="aE"/><g id="g"><use transform="matrix(0.010666666666666668,0,0,0.010666666666666668,0,0)" xlink:href="#af"/><use transform="matrix(0.010666666666666668,0,0,0.010666666666666668,15.146666666666668,0)" xlink:href="#aB"/><use transform="matrix(0.010666666666666668,0,0,0.010666666666666668,29.045333333333335,0)" xlink:href="#aC"/><use transform="matrix(0.010666666666666668,0,0,0.010666666666666668,40.49066666666667,0)" xlink:href="#aD"/><use transform="matrix(0.010666666666666668,0,0,0.010666666666666668,53.184000000000005,0)" xlink:href="#ae"/><use transform="matrix(0.010666666666666668,0,0,0.010666666666666668,67.15733333333334,0)" xlink:href="#af"/><use transform="matrix(0.010666666666666668,0,0,0.010666666666666668,81.76000000000002,0)" xlink:href="#aE"/><use transform="matrix(0.010666666666666668,0,0,0.010666666666666668,96.06400000000001,0)" xlink:href="#aD"/></g><path fill-opacity=".75" d="M338-561c-24 238 65 414 292 414 248 0 364-184 392-413l107-873h187l-106 873c-35 259-169 443-374 533-122 53-299 59-423 8-186-77-294-269-261-541l106-873h187" id="aF"/><path fill-opacity=".75" d="M500-765l-337-668h169c29 0 37 9 46 28l256 540c6-13 13-25 22-37l364-502c13-15 22-28 47-29h193L759-773 1137 0H969c-27 1-41-19-49-36L628-661c-5 11-11 21-18 30L179-36c-17 24-38 36-62 36H-70" id="aG"/><g id="h"><use transform="matrix(0.010666666666666668,0,0,0.010666666666666668,0,0)" xlink:href="#aF"/><use transform="matrix(0.010666666666666668,0,0,0.010666666666666668,14.325333333333335,0)" xlink:href="#aG"/></g><path fill-opacity=".75" d="M819-182C718-74 623 18 421 14 174 9 60-151 60-400c0-275 129-471 310-575 103-59 270-71 377-17 45 24 85 59 119 104-24 26-43 58-71 80-39 17-58-18-83-36-63-46-192-53-268-2-126 84-202 239-206 447-4 188 104 307 299 263 78-18 122-71 177-108 53-36 79 38 105 62" id="aH"/><path fill-opacity=".75" d="M370 16c-145 1-225-95-208-250 23-210 51-421 76-630H125c-50-1-22-70-21-110l156-21 75-313c7-50 83-30 136-34l-44 349h266l-15 129H411c-25 212-58 418-75 634-5 63 29 99 88 100 57 2 84-33 123-48 14 1 17 6 22 17l37 85c-55 50-140 91-236 92" id="aI"/><g id="i"><use transform="matrix(0.010666666666666668,0,0,0.010666666666666668,0,0)" xlink:href="#aH"/><use transform="matrix(0.010666666666666668,0,0,0.010666666666666668,9.237333333333334,0)" xlink:href="#ai"/><use transform="matrix(0.010666666666666668,0,0,0.010666666666666668,16.29866666666667,0)" xlink:href="#am"/><use transform="matrix(0.010666666666666668,0,0,0.010666666666666668,26.133333333333336,0)" xlink:href="#aj"/><use transform="matrix(0.010666666666666668,0,0,0.010666666666666668,36.90666666666667,0)" xlink:href="#aI"/><use transform="matrix(0.010666666666666668,0,0,0.010666666666666668,44.21333333333334,0)" xlink:href="#am"/><use transform="matrix(0.010666666666666668,0,0,0.010666666666666668,54.047999999999995,0)" xlink:href="#al"/></g><path fill-opacity=".75" d="M608 14c-142 0-221-61-286-144-9 50 6 130-55 130H152v-1473h179v606c78-87 176-162 331-162 283 0 384 222 384 516 0 237-93 406-254 487-54 27-116 40-184 40zm254-527c-2-212-53-374-258-374-136 0-207 69-273 153v490c56 77 120 120 237 120 208 0 296-164 294-389" id="aJ"/><path fill-opacity=".75" d="M537-1031c235 0 353 147 353 383V0c-58-5-129 17-142-42l-20-94C637-55 545 19 375 16 200 13 92-76 92-253c0-184 160-243 332-285 79-19 176-28 291-31 12-184-31-318-200-318-113 0-181 45-243 91-36 26-82 14-99-17l-32-57c101-96 215-161 396-161zM263-261c0 103 62 152 165 152 140 0 216-64 287-136v-211c-141 4-258 19-349 60-60 27-103 62-103 135" id="aK"/><path fill-opacity=".75" d="M598-887c-125 2-207 68-274 141V0H146v-1473h178v596c81-82 173-152 326-152 232 0 339 151 339 384V0H811v-645c0-149-65-244-213-242" id="aL"/><g id="j"><use transform="matrix(0.010666666666666668,0,0,0.010666666666666668,0,0)" xlink:href="#aJ"/><use transform="matrix(0.010666666666666668,0,0,0.010666666666666668,11.925333333333334,0)" xlink:href="#au"/><use transform="matrix(0.010666666666666668,0,0,0.010666666666666668,20.117333333333335,0)" xlink:href="#aK"/><use transform="matrix(0.010666666666666668,0,0,0.010666666666666668,30.933333333333337,0)" xlink:href="#ay"/><use transform="matrix(0.010666666666666668,0,0,0.010666666666666668,42.79466666666667,0)" xlink:href="#aq"/><use transform="matrix(0.010666666666666668,0,0,0.010666666666666668,52.75733333333333,0)" xlink:href="#aL"/></g><g id="k"><use transform="matrix(0.010666666666666668,0,0,0.010666666666666668,0,0)" xlink:href="#ao"/><use transform="matrix(0.010666666666666668,0,0,0.010666666666666668,5.461333333333334,0)" xlink:href="#ay"/></g><path fill-opacity=".75" d="M-17 228c126 0 183-30 183-153v-1088h178V75c-3 186-98 287-286 289-47 0-79-7-114-20l8-96c3-18 11-20 31-20zm273-1687c77 0 128 52 128 128 0 75-52 126-128 126-75 0-126-51-126-126 0-76 50-128 126-128" id="aM"/><g id="l"><use transform="matrix(0.010666666666666668,0,0,0.010666666666666668,0,0)" xlink:href="#ax"/><use transform="matrix(0.010666666666666668,0,0,0.010666666666666668,11.776000000000002,0)" xlink:href="#au"/><use transform="matrix(0.010666666666666668,0,0,0.010666666666666668,20.373333333333335,0)" xlink:href="#ar"/><use transform="matrix(0.010666666666666668,0,0,0.010666666666666668,32.23466666666667,0)" xlink:href="#aM"/><use transform="matrix(0.010666666666666668,0,0,0.010666666666666668,37.653333333333336,0)" xlink:href="#at"/><use transform="matrix(0.010666666666666668,0,0,0.010666666666666668,48.83200000000001,0)" xlink:href="#aq"/><use transform="matrix(0.010666666666666668,0,0,0.010666666666666668,58.79466666666667,0)" xlink:href="#az"/></g><g id="m"><use transform="matrix(0.010666666666666668,0,0,0.010666666666666668,0,0)" xlink:href="#aq"/><use transform="matrix(0.010666666666666668,0,0,0.010666666666666668,9.962666666666667,0)" xlink:href="#ar"/><use transform="matrix(0.010666666666666668,0,0,0.010666666666666668,21.824,0)" xlink:href="#aw"/><use transform="matrix(0.010666666666666668,0,0,0.010666666666666668,39.33866666666667,0)" xlink:href="#ax"/><use transform="matrix(0.010666666666666668,0,0,0.010666666666666668,51.11466666666667,0)" xlink:href="#ar"/><use transform="matrix(0.010666666666666668,0,0,0.010666666666666668,62.976000000000006,0)" xlink:href="#ay"/><use transform="matrix(0.010666666666666668,0,0,0.010666666666666668,74.83733333333333,0)" xlink:href="#at"/><use transform="matrix(0.010666666666666668,0,0,0.010666666666666668,86.016,0)" xlink:href="#ay"/><use transform="matrix(0.010666666666666668,0,0,0.010666666666666668,97.87733333333334,0)" xlink:href="#az"/></g><path fill-opacity=".75" d="M424-840c74 2 135-1 169-44l399-505c32-39 58-57 122-57h232L859-845c-28 33-52 59-89 78 50 19 80 49 111 90L1383 0h-238c-63 0-84-18-111-53L625-587c-28-35-53-49-116-49h-85V0H155v-1447h269v607" id="aN"/><path fill-opacity=".75" d="M1058-1446v214H417v401h505v207H417v409h641V0H146v-1446h912" id="aO"/><path fill-opacity=".75" d="M1366 0h-271v-632H417V0H146v-1446h271v622h678v-622h271V0" id="aP"/><g id="n"><use transform="matrix(0.010666666666666668,0,0,0.010666666666666668,0,0)" xlink:href="#aC"/><use transform="matrix(0.010666666666666668,0,0,0.010666666666666668,11.445333333333334,0)" xlink:href="#aN"/><use transform="matrix(0.010666666666666668,0,0,0.010666666666666668,26.336000000000002,0)" xlink:href="#aO"/><use transform="matrix(0.010666666666666668,0,0,0.010666666666666668,38.54933333333334,0)" xlink:href="#aD"/><use transform="matrix(0.010666666666666668,0,0,0.010666666666666668,50.41066666666667,0)" xlink:href="#aE"/><use transform="matrix(0.010666666666666668,0,0,0.010666666666666668,64.71466666666667,0)" xlink:href="#aP"/></g><g id="o"><use transform="matrix(0.010666666666666668,0,0,0.010666666666666668,0,0)" xlink:href="#aq"/><use transform="matrix(0.010666666666666668,0,0,0.010666666666666668,9.962666666666667,0)" xlink:href="#ar"/><use transform="matrix(0.010666666666666668,0,0,0.010666666666666668,21.824,0)" xlink:href="#aw"/><use transform="matrix(0.010666666666666668,0,0,0.010666666666666668,39.33866666666667,0)" xlink:href="#ax"/><use transform="matrix(0.010666666666666668,0,0,0.010666666666666668,51.11466666666667,0)" xlink:href="#ar"/><use transform="matrix(0.010666666666666668,0,0,0.010666666666666668,62.976000000000006,0)" xlink:href="#ay"/><use transform="matrix(0.010666666666666668,0,0,0.010666666666666668,74.83733333333333,0)" xlink:href="#at"/><use transform="matrix(0.010666666666666668,0,0,0.010666666666666668,86.016,0)" xlink:href="#ay"/><use transform="matrix(0.010666666666666668,0,0,0.010666666666666668,97.87733333333334,0)" xlink:href="#az"/></g><g id="p"><use transform="matrix(0.010666666666666668,0,0,0.010666666666666668,0,0)" xlink:href="#ap"/><use transform="matrix(0.010666666666666668,0,0,0.010666666666666668,9.258666666666668,0)" xlink:href="#aA"/><use transform="matrix(0.010666666666666668,0,0,0.010666666666666668,19.797333333333334,0)" xlink:href="#at"/><use transform="matrix(0.010666666666666668,0,0,0.010666666666666668,30.976000000000003,0)" xlink:href="#az"/><use transform="matrix(0.010666666666666668,0,0,0.010666666666666668,38.93333333333334,0)" xlink:href="#aq"/><use transform="matrix(0.010666666666666668,0,0,0.010666666666666668,48.895999999999994,0)" xlink:href="#aL"/></g><path fill-opacity=".75" d="M344-1473V0H166v-1473h178" id="aQ"/><g id="q"><use transform="matrix(0.010666666666666668,0,0,0.010666666666666668,0,0)" xlink:href="#ap"/><use transform="matrix(0.010666666666666668,0,0,0.010666666666666668,9.258666666666668,0)" xlink:href="#av"/><use transform="matrix(0.010666666666666668,0,0,0.010666666666666668,20.181333333333335,0)" xlink:href="#aw"/><use transform="matrix(0.010666666666666668,0,0,0.010666666666666668,37.696000000000005,0)" xlink:href="#aJ"/><use transform="matrix(0.010666666666666668,0,0,0.010666666666666668,49.62133333333334,0)" xlink:href="#ar"/><use transform="matrix(0.010666666666666668,0,0,0.010666666666666668,61.482666666666674,0)" xlink:href="#aQ"/></g><path fill-opacity=".75" d="M719-645c12-110 21-244-99-235-135 10-195 105-250 204-24 43-43 93-62 148L245 0H71l122-1014c68 2 156-16 149 60l-14 181c50-84 105-148 164-191s122-64 188-64c150 2 200 113 201 272 51-93 108-162 171-206s129-66 198-66c195 0 240 179 216 383L1390 0h-175l76-645c13-113 15-243-103-235-127 9-190 96-244 188-24 40-43 88-61 141L818 0H642" id="aR"/><path fill-opacity=".75" d="M797-847c35 86 12 214-22 279-43 82-114 138-114 254 0 135 137 174 131 325-7 181-129 274-276 325-147 50-375 30-476-41-57-40-106-95-106-182 0-234 234-293 476-301 50-2 97 5 142 11-37-69-15-165 21-222-50 34-110 56-192 54-180-5-279-112-279-297 0-179 98-295 230-353 108-48 272-46 364 19h275c-8 43-2 100-48 107zM265-641c-4 114 56 184 165 184 149 0 217-120 223-269 5-112-59-178-167-178-149 0-216 114-221 263zM103 91c-2 188 334 169 445 84 62-47 107-147 64-241-180-32-420-26-490 92-13 21-19 42-19 65" id="aS"/><g id="r"><use transform="matrix(0.010666666666666668,0,0,0.010666666666666668,0,0)" xlink:href="#aR"/><use transform="matrix(0.010666666666666668,0,0,0.010666666666666668,16.71466666666667,0)" xlink:href="#am"/><use transform="matrix(0.010666666666666668,0,0,0.010666666666666668,26.549333333333337,0)" xlink:href="#ai"/><use transform="matrix(0.010666666666666668,0,0,0.010666666666666668,34.037333333333336,0)" xlink:href="#aS"/><use transform="matrix(0.010666666666666668,0,0,0.010666666666666668,43.94666666666667,0)" xlink:href="#am"/><use transform="matrix(0.010666666666666668,0,0,0.010666666666666668,53.78133333333334,0)" xlink:href="#al"/></g><g id="s"><use transform="matrix(0.010666666666666668,0,0,0.010666666666666668,0,0)" xlink:href="#ao"/><use transform="matrix(0.010666666666666668,0,0,0.010666666666666668,5.461333333333334,0)" xlink:href="#ay"/><use transform="matrix(0.010666666666666668,0,0,0.010666666666666668,17.32266666666667,0)" xlink:href="#az"/><use transform="matrix(0.010666666666666668,0,0,0.010666666666666668,25.280000000000005,0)" xlink:href="#ar"/></g><path fill-opacity=".75" d="M338-1150c4 31 6 65 6 97V0H174v-1433c59 2 132-6 183 5 10 2 18 13 27 28l495 882c19 31 31 68 45 104 14-38 27-71 46-105l485-881c25-58 137-23 210-33V0h-170c2-381-5-772 4-1147l-491 896c-27 62-134 61-168 0" id="aT"/><g id="t"><use transform="matrix(0.010666666666666668,0,0,0.010666666666666668,0,0)" xlink:href="#aT"/><use transform="matrix(0.010666666666666668,0,0,0.010666666666666668,19.62666666666667,0)" xlink:href="#aK"/><use transform="matrix(0.010666666666666668,0,0,0.010666666666666668,30.442666666666664,0)" xlink:href="#ap"/><use transform="matrix(0.010666666666666668,0,0,0.010666666666666668,39.70133333333334,0)" xlink:href="#az"/><use transform="matrix(0.010666666666666668,0,0,0.010666666666666668,47.658666666666676,0)" xlink:href="#at"/><use transform="matrix(0.010666666666666668,0,0,0.010666666666666668,58.83733333333335,0)" xlink:href="#au"/></g><g id="u"><use transform="matrix(0.010666666666666668,0,0,0.010666666666666668,0,0)" xlink:href="#aR"/><use transform="matrix(0.010666666666666668,0,0,0.010666666666666668,16.71466666666667,0)" xlink:href="#am"/><use transform="matrix(0.010666666666666668,0,0,0.010666666666666668,26.549333333333337,0)" xlink:href="#ai"/><use transform="matrix(0.010666666666666668,0,0,0.010666666666666668,34.037333333333336,0)" xlink:href="#aS"/><use transform="matrix(0.010666666666666668,0,0,0.010666666666666668,43.94666666666667,0)" xlink:href="#am"/><use transform="matrix(0.010666666666666668,0,0,0.010666666666666668,53.78133333333334,0)" xlink:href="#al"/></g><g id="v"><use transform="matrix(0.010666666666666668,0,0,0.010666666666666668,0,0)" xlink:href="#aJ"/><use transform="matrix(0.010666666666666668,0,0,0.010666666666666668,11.925333333333334,0)" xlink:href="#au"/><use transform="matrix(0.010666666666666668,0,0,0.010666666666666668,20.117333333333335,0)" xlink:href="#aK"/><use transform="matrix(0.010666666666666668,0,0,0.010666666666666668,30.933333333333337,0)" xlink:href="#ay"/><use transform="matrix(0.010666666666666668,0,0,0.010666666666666668,42.79466666666667,0)" xlink:href="#aq"/><use transform="matrix(0.010666666666666668,0,0,0.010666666666666668,52.75733333333333,0)" xlink:href="#aL"/></g><path fill-opacity=".75" d="M234-408c-1 169 59 283 214 283 178 0 257-149 300-300 16-58 23-119 23-182 1-168-60-282-214-282-179 0-257 148-300 299-17 58-23 119-23 182zm339-621c250 0 377 166 377 421 0 277-129 473-314 572-63 34-131 50-204 50C182 14 55-152 55-407c0-277 128-474 313-573 63-33 132-49 205-49" id="aU"/><g id="w"><use transform="matrix(0.010666666666666668,0,0,0.010666666666666668,0,0)" xlink:href="#aU"/><use transform="matrix(0.010666666666666668,0,0,0.010666666666666668,10.72,0)" xlink:href="#ai"/></g><path fill-opacity=".75" d="M1301-1066c63 175 47 415-17 582C1176-206 962 0 592 0H97l177-1433h494c287 5 455 151 533 367zm-152 253c0-279-125-468-399-468H444L304-151c190-7 390 22 525-45 205-101 320-312 320-617" id="aV"/><path fill-opacity=".75" d="M1070-1280H443l-60 483h508l-19 147H365l-61 498h629L914 0H97l177-1433h815" id="aW"/><path fill-opacity=".75" d="M124-1433h149c33-1 52 20 58 45 86 365 172 728 255 1094 5 26 9 53 12 81 18-53 39-105 61-151l489-1024c10-20 37-45 69-45h150L654 0H485" id="aX"/><g id="x"><use transform="matrix(0.010666666666666668,0,0,0.010666666666666668,0,0)" xlink:href="#aV"/><use transform="matrix(0.010666666666666668,0,0,0.010666666666666668,14.773333333333335,0)" xlink:href="#aW"/><use transform="matrix(0.010666666666666668,0,0,0.010666666666666668,26.15466666666667,0)" xlink:href="#aX"/></g><path fill-opacity=".75" d="M100-675h494v151H100v-151" id="aY"/><use transform="matrix(0.010666666666666668,0,0,0.010666666666666668,0,0)" xlink:href="#aY" id="y"/><path fill-opacity=".75" d="M1289-200C1173-69 1017 19 773 16c-339-4-539-180-634-435-65-176-67-421 3-594 104-257 318-431 668-436 220-3 359 75 476 182-27 35-48 75-79 105-60 21-86-37-135-56-109-71-336-85-474-24-190 83-310 257-310 526 0 268 114 444 301 527 146 65 383 42 487-33 24-17 50-36 75-59 20-19 44-22 62-2" id="aZ"/><g id="z"><use transform="matrix(0.010666666666666668,0,0,0.010666666666666668,0,0)" xlink:href="#aZ"/><use transform="matrix(0.010666666666666668,0,0,0.010666666666666668,14.613333333333335,0)" xlink:href="#ar"/><use transform="matrix(0.010666666666666668,0,0,0.010666666666666668,26.47466666666667,0)" xlink:href="#aw"/><use transform="matrix(0.010666666666666668,0,0,0.010666666666666668,43.98933333333334,0)" xlink:href="#ax"/><use transform="matrix(0.010666666666666668,0,0,0.010666666666666668,55.76533333333334,0)" xlink:href="#ar"/><use transform="matrix(0.010666666666666668,0,0,0.010666666666666668,67.62666666666668,0)" xlink:href="#ay"/><use transform="matrix(0.010666666666666668,0,0,0.010666666666666668,79.48800000000001,0)" xlink:href="#at"/><use transform="matrix(0.010666666666666668,0,0,0.010666666666666668,90.66666666666667,0)" xlink:href="#ay"/><use transform="matrix(0.010666666666666668,0,0,0.010666666666666668,102.52800000000002,0)" xlink:href="#az"/></g><g id="A"><use transform="matrix(0.010666666666666668,0,0,0.010666666666666668,0,0)" xlink:href="#ap"/><use transform="matrix(0.010666666666666668,0,0,0.010666666666666668,9.258666666666668,0)" xlink:href="#av"/><use transform="matrix(0.010666666666666668,0,0,0.010666666666666668,20.181333333333335,0)" xlink:href="#aw"/><use transform="matrix(0.010666666666666668,0,0,0.010666666666666668,37.696000000000005,0)" xlink:href="#aJ"/><use transform="matrix(0.010666666666666668,0,0,0.010666666666666668,49.62133333333334,0)" xlink:href="#ar"/><use transform="matrix(0.010666666666666668,0,0,0.010666666666666668,61.482666666666674,0)" xlink:href="#aQ"/></g><path fill-opacity=".75" d="M510-1031c133 0 210 49 277 120v-562h178V0c-60-6-146 21-154-37l-16-123C716-67 616 14 455 14 173 14 72-209 72-503c0-237 94-406 254-487 54-27 115-41 184-41zM256-503c2 212 53 373 258 373 136 0 207-69 273-153v-490c-57-77-121-119-237-119-208 0-296 164-294 389" id="ba"/><g id="B"><use transform="matrix(0.010666666666666668,0,0,0.010666666666666668,0,0)" xlink:href="#aK"/><use transform="matrix(0.010666666666666668,0,0,0.010666666666666668,10.816,0)" xlink:href="#ba"/><use transform="matrix(0.010666666666666668,0,0,0.010666666666666668,22.741333333333337,0)" xlink:href="#ba"/><use transform="matrix(0.010666666666666668,0,0,0.010666666666666668,34.66666666666667,0)" xlink:href="#at"/><use transform="matrix(0.010666666666666668,0,0,0.010666666666666668,45.845333333333336,0)" xlink:href="#ba"/></g><g id="C"><use transform="matrix(0.010666666666666668,0,0,0.010666666666666668,0,0)" xlink:href="#az"/><use transform="matrix(0.010666666666666668,0,0,0.010666666666666668,7.9573333333333345,0)" xlink:href="#ar"/></g><path fill-opacity=".75" d="M14-1013c70 8 177-25 195 37l194 652c10 46 20 89 27 137 77-272 174-527 253-793 13-44 73-34 126-35 27-1 44 16 51 35 81 265 173 518 245 792 7-44 18-96 30-136l198-652c15-59 118-30 186-37L1191 0h-141c-17 0-29-11-36-34-79-245-162-486-237-734-5-15-7-31-10-46-7 32-12 65-23 94L517-34C501 26 405-10 342 0" id="bb"/><g id="D"><use transform="matrix(0.010666666666666668,0,0,0.010666666666666668,0,0)" xlink:href="#ay"/><use transform="matrix(0.010666666666666668,0,0,0.010666666666666668,11.861333333333334,0)" xlink:href="#at"/><use transform="matrix(0.010666666666666668,0,0,0.010666666666666668,23.040000000000003,0)" xlink:href="#bb"/></g><g id="E"><use transform="matrix(0.010666666666666668,0,0,0.010666666666666668,0,0)" xlink:href="#ar"/><use transform="matrix(0.010666666666666668,0,0,0.010666666666666668,11.861333333333334,0)" xlink:href="#au"/></g><path fill-opacity=".75" d="M383-519L42-1013h171c30 0 38 9 50 27l248 380c6-19 14-38 26-56l218-320c12-15 21-30 45-31h164L623-529 978 0H807c-30 1-44-19-55-37L497-434c-5 19-11 37-21 52L240-37c-13 16-24 37-53 37H28" id="bc"/><path fill-opacity=".75" d="M103-704c0-220 160-326 384-326 92 0 169 21 228 57h275c-2 53 13 100-42 108l-115 16c43 79 45 196 5 279-58 120-176 191-351 193-47 0-92-6-134-17-50 22-100 108-36 142 165 88 511-13 621 164 40 65 36 170-4 240-77 134-229 213-441 213-193 0-343-50-415-167-19-32-28-66-28-101 3-117 84-175 178-211-54-27-98-64-94-143 4-90 64-137 129-173-91-51-160-139-160-274zM334-85C254-53 162 38 224 138c97 157 586 133 579-83C799-63 659-58 543-68c-70-6-146-6-209-17zm-67-614c0 134 84 204 220 204 137 0 221-69 221-204 0-129-85-203-221-203-135 0-220 74-220 203" id="bd"/><g id="F"><use transform="matrix(0.010666666666666668,0,0,0.010666666666666668,0,0)" xlink:href="#at"/><use transform="matrix(0.010666666666666668,0,0,0.010666666666666668,10.538666666666668,0)" xlink:href="#bc"/><use transform="matrix(0.010666666666666668,0,0,0.010666666666666668,21.290666666666667,0)" xlink:href="#ao"/><use transform="matrix(0.010666666666666668,0,0,0.010666666666666668,26.752000000000002,0)" xlink:href="#ap"/><use transform="matrix(0.010666666666666668,0,0,0.010666666666666668,36.01066666666667,0)" xlink:href="#az"/><use transform="matrix(0.010666666666666668,0,0,0.010666666666666668,43.968,0)" xlink:href="#ao"/><use transform="matrix(0.010666666666666668,0,0,0.010666666666666668,49.42933333333334,0)" xlink:href="#ay"/><use transform="matrix(0.010666666666666668,0,0,0.010666666666666668,61.290666666666674,0)" xlink:href="#bd"/></g><g id="G"><use transform="matrix(0.010666666666666668,0,0,0.010666666666666668,0,0)" xlink:href="#aZ"/><use transform="matrix(0.010666666666666668,0,0,0.010666666666666668,14.613333333333335,0)" xlink:href="#ar"/><use transform="matrix(0.010666666666666668,0,0,0.010666666666666668,26.47466666666667,0)" xlink:href="#aQ"/><use transform="matrix(0.010666666666666668,0,0,0.010666666666666668,31.93600000000001,0)" xlink:href="#aQ"/><use transform="matrix(0.010666666666666668,0,0,0.010666666666666668,37.39733333333334,0)" xlink:href="#at"/><use transform="matrix(0.010666666666666668,0,0,0.010666666666666668,48.57600000000001,0)" xlink:href="#aq"/><use transform="matrix(0.010666666666666668,0,0,0.010666666666666668,58.53866666666667,0)" xlink:href="#az"/><use transform="matrix(0.010666666666666668,0,0,0.010666666666666668,66.49600000000001,0)" xlink:href="#ao"/><use transform="matrix(0.010666666666666668,0,0,0.010666666666666668,71.95733333333334,0)" xlink:href="#ar"/><use transform="matrix(0.010666666666666668,0,0,0.010666666666666668,83.81866666666667,0)" xlink:href="#ay"/></g><use transform="matrix(0.010666666666666668,0,0,0.010666666666666668,0,0)" xlink:href="#aY" id="H"/><path fill-opacity=".75" d="M1353 0h-150c-36 0-55-21-66-46l-134-346H360L226-46c-9 23-33 46-66 46H10l573-1433h197zM414-532h535l-225-583c-15-36-29-81-43-135-13 48-26 95-42 136" id="be"/><g id="I"><use transform="matrix(0.010666666666666668,0,0,0.010666666666666668,0,0)" xlink:href="#be"/><use transform="matrix(0.010666666666666668,0,0,0.010666666666666668,14.506666666666668,0)" xlink:href="#aJ"/><use transform="matrix(0.010666666666666668,0,0,0.010666666666666668,26.432000000000002,0)" xlink:href="#ap"/><use transform="matrix(0.010666666666666668,0,0,0.010666666666666668,35.69066666666667,0)" xlink:href="#az"/><use transform="matrix(0.010666666666666668,0,0,0.010666666666666668,43.64800000000001,0)" xlink:href="#au"/><use transform="matrix(0.010666666666666668,0,0,0.010666666666666668,51.84000000000002,0)" xlink:href="#aK"/><use transform="matrix(0.010666666666666668,0,0,0.010666666666666668,62.65600000000002,0)" xlink:href="#aq"/><use transform="matrix(0.010666666666666668,0,0,0.010666666666666668,72.61866666666668,0)" xlink:href="#az"/></g><path fill-opacity=".75" d="M513-145c178-4 292-88 292-262 0-193-194-213-343-263-182-61-347-142-342-385 4-188 111-303 254-361 117-48 292-41 408 5 66 26 124 62 173 110-22 37-36 86-66 115-51 25-83-28-123-48-53-26-114-56-200-54-157 4-266 71-266 223 0 186 200 204 344 258 175 65 343 135 343 372 0 289-185 446-480 451-198 4-349-81-449-187 26-36 42-83 76-111 60-25 93 39 140 65 62 34 135 75 239 72" id="bf"/><g id="J"><use transform="matrix(0.010666666666666668,0,0,0.010666666666666668,0,0)" xlink:href="#bf"/><use transform="matrix(0.010666666666666668,0,0,0.010666666666666668,11.306666666666668,0)" xlink:href="#aL"/><use transform="matrix(0.010666666666666668,0,0,0.010666666666666668,23.168000000000003,0)" xlink:href="#aK"/><use transform="matrix(0.010666666666666668,0,0,0.010666666666666668,33.984,0)" xlink:href="#au"/><use transform="matrix(0.010666666666666668,0,0,0.010666666666666668,42.58133333333333,0)" xlink:href="#at"/></g><path fill-opacity=".75" d="M368-163h620V0H174v-1433h194v1270" id="bg"/><g id="K"><use transform="matrix(0.010666666666666668,0,0,0.010666666666666668,0,0)" xlink:href="#bg"/><use transform="matrix(0.010666666666666668,0,0,0.010666666666666668,10.965333333333335,0)" xlink:href="#ao"/><use transform="matrix(0.010666666666666668,0,0,0.010666666666666668,16.42666666666667,0)" xlink:href="#ay"/><use transform="matrix(0.010666666666666668,0,0,0.010666666666666668,28.288000000000004,0)" xlink:href="#aA"/></g><g id="L"><use transform="matrix(0.010666666666666668,0,0,0.010666666666666668,0,0)" xlink:href="#bd"/><use transform="matrix(0.010666666666666668,0,0,0.010666666666666668,10.901333333333335,0)" xlink:href="#at"/><use transform="matrix(0.010666666666666668,0,0,0.010666666666666668,22.08000000000001,0)" xlink:href="#ay"/><use transform="matrix(0.010666666666666668,0,0,0.010666666666666668,33.94133333333334,0)" xlink:href="#at"/><use transform="matrix(0.010666666666666668,0,0,0.010666666666666668,45.120000000000005,0)" xlink:href="#au"/><use transform="matrix(0.010666666666666668,0,0,0.010666666666666668,53.31200000000002,0)" xlink:href="#aK"/><use transform="matrix(0.010666666666666668,0,0,0.010666666666666668,64.12800000000001,0)" xlink:href="#az"/><use transform="matrix(0.010666666666666668,0,0,0.010666666666666668,72.08533333333335,0)" xlink:href="#at"/><use transform="matrix(0.010666666666666668,0,0,0.010666666666666668,83.26400000000002,0)" xlink:href="#ba"/></g><g id="M"><use transform="matrix(0.010666666666666668,0,0,0.010666666666666668,0,0)" xlink:href="#ac"/><use transform="matrix(0.010666666666666668,0,0,0.010666666666666668,9.322666666666668,0)" xlink:href="#ad"/><use transform="matrix(0.010666666666666668,0,0,0.010666666666666668,16.021333333333338,0)" xlink:href="#ae"/><use transform="matrix(0.010666666666666668,0,0,0.010666666666666668,29.994666666666674,0)" xlink:href="#af"/></g><g id="N"><use transform="matrix(0.010666666666666668,0,0,0.010666666666666668,0,0)" xlink:href="#ag"/><use transform="matrix(0.010666666666666668,0,0,0.010666666666666668,12.032000000000002,0)" xlink:href="#ah"/></g><path fill-opacity=".75" d="M115-672h457l-19 146H97" id="bh"/><use transform="matrix(0.010666666666666668,0,0,0.010666666666666668,0,0)" xlink:href="#bh" id="O"/><g id="P"><use transform="matrix(0.010666666666666668,0,0,0.010666666666666668,0,0)" xlink:href="#au"/><use transform="matrix(0.010666666666666668,0,0,0.010666666666666668,8.192000000000002,0)" xlink:href="#aK"/><use transform="matrix(0.010666666666666668,0,0,0.010666666666666668,19.008000000000003,0)" xlink:href="#ao"/><use transform="matrix(0.010666666666666668,0,0,0.010666666666666668,24.469333333333335,0)" xlink:href="#ap"/><use transform="matrix(0.010666666666666668,0,0,0.010666666666666668,33.72800000000001,0)" xlink:href="#at"/><use transform="matrix(0.010666666666666668,0,0,0.010666666666666668,44.90666666666668,0)" xlink:href="#ap"/></g><path fill-opacity=".75" d="M1057-1433v158H369v476h557v152H369v489h688V0H174v-1433h883" id="bi"/><path fill-opacity=".75" d="M8-1433h155c36 0 55 21 66 46L634-376c20 47 34 103 48 157 12-55 25-110 44-157l403-1011c9-22 33-46 66-46h156L767 0H592" id="bj"/><g id="Q"><use transform="matrix(0.010666666666666668,0,0,0.010666666666666668,0,0)" xlink:href="#an"/><use transform="matrix(0.010666666666666668,0,0,0.010666666666666668,16.064000000000004,0)" xlink:href="#bi"/><use transform="matrix(0.010666666666666668,0,0,0.010666666666666668,28.458666666666677,0)" xlink:href="#bj"/></g><g id="R"><use transform="matrix(0.010666666666666668,0,0,0.010666666666666668,0,0)" xlink:href="#az"/><use transform="matrix(0.010666666666666668,0,0,0.010666666666666668,7.9573333333333345,0)" xlink:href="#ao"/><use transform="matrix(0.010666666666666668,0,0,0.010666666666666668,13.418666666666669,0)" xlink:href="#aq"/><use transform="matrix(0.010666666666666668,0,0,0.010666666666666668,23.381333333333338,0)" xlink:href="#aA"/><use transform="matrix(0.010666666666666668,0,0,0.010666666666666668,33.92,0)" xlink:href="#at"/><use transform="matrix(0.010666666666666668,0,0,0.010666666666666668,45.098666666666674,0)" xlink:href="#az"/></g><path fill-opacity=".75" d="M404 0H210v-1433h194V0" id="bk"/><path fill-opacity=".75" d="M461 16c-231 0-339-149-339-383v-646h178v646c0 148 67 243 213 241 125-2 207-66 274-140v-747h178V0c-60-6-146 22-154-37l-14-109C716-60 619 16 461 16" id="bl"/><g id="S"><use transform="matrix(0.010666666666666668,0,0,0.010666666666666668,0,0)" xlink:href="#bk"/><use transform="matrix(0.010666666666666668,0,0,0.010666666666666668,6.549333333333334,0)" xlink:href="#ay"/><use transform="matrix(0.010666666666666668,0,0,0.010666666666666668,18.410666666666668,0)" xlink:href="#aq"/><use transform="matrix(0.010666666666666668,0,0,0.010666666666666668,28.37333333333334,0)" xlink:href="#aQ"/><use transform="matrix(0.010666666666666668,0,0,0.010666666666666668,33.83466666666667,0)" xlink:href="#bl"/><use transform="matrix(0.010666666666666668,0,0,0.010666666666666668,45.696000000000005,0)" xlink:href="#ba"/><use transform="matrix(0.010666666666666668,0,0,0.010666666666666668,57.62133333333334,0)" xlink:href="#at"/><use transform="matrix(0.010666666666666668,0,0,0.010666666666666668,68.80000000000001,0)" xlink:href="#ap"/></g><g id="T"><use transform="matrix(0.010666666666666668,0,0,0.010666666666666668,0,0)" xlink:href="#ap"/><use transform="matrix(0.010666666666666668,0,0,0.010666666666666668,9.258666666666668,0)" xlink:href="#aL"/><use transform="matrix(0.010666666666666668,0,0,0.010666666666666668,21.120000000000005,0)" xlink:href="#aK"/><use transform="matrix(0.010666666666666668,0,0,0.010666666666666668,31.93600000000001,0)" xlink:href="#au"/><use transform="matrix(0.010666666666666668,0,0,0.010666666666666668,40.533333333333346,0)" xlink:href="#at"/></g><g id="U"><use transform="matrix(0.010666666666666668,0,0,0.010666666666666668,0,0)" xlink:href="#aQ"/><use transform="matrix(0.010666666666666668,0,0,0.010666666666666668,5.461333333333334,0)" xlink:href="#ao"/><use transform="matrix(0.010666666666666668,0,0,0.010666666666666668,10.922666666666668,0)" xlink:href="#ay"/><use transform="matrix(0.010666666666666668,0,0,0.010666666666666668,22.784000000000002,0)" xlink:href="#aA"/></g><path fill-opacity=".75" d="M1377-1015c71 172 71 412 0 584C1271-174 1052 0 698 0H146v-1446h552c353 6 574 175 679 431zM698-214c307-9 457-198 457-509s-150-500-457-509H417v1018h281" id="bm"/><path fill-opacity=".75" d="M4-1446h217c48-1 77 26 90 61 125 326 256 646 373 977 12 34 20 70 29 108 15-77 34-144 57-203l339-882c12-30 45-61 89-61h217L831 0H588" id="bn"/><g id="V"><use transform="matrix(0.010666666666666668,0,0,0.010666666666666668,0,0)" xlink:href="#bm"/><use transform="matrix(0.010666666666666668,0,0,0.010666666666666668,15.946666666666669,0)" xlink:href="#aO"/><use transform="matrix(0.010666666666666668,0,0,0.010666666666666668,28.160000000000004,0)" xlink:href="#bn"/></g><path fill-opacity=".75" d="M1124-1036c0 240-152 355-353 406 24 14 45 35 64 61L1253 0c-92-9-205 21-250-41L631-553c-24-32-41-45-97-45H387V0H194v-1433h405c307 3 525 101 525 397zm-189 14c0-188-133-258-336-258H387v541h203c205-3 345-85 345-283" id="bo"/><g id="W"><use transform="matrix(0.010666666666666668,0,0,0.010666666666666668,0,0)" xlink:href="#bo"/><use transform="matrix(0.010666666666666668,0,0,0.010666666666666668,13.738666666666669,0)" xlink:href="#at"/><use transform="matrix(0.010666666666666668,0,0,0.010666666666666668,24.917333333333335,0)" xlink:href="#aK"/><use transform="matrix(0.010666666666666668,0,0,0.010666666666666668,35.73333333333334,0)" xlink:href="#aq"/><use transform="matrix(0.010666666666666668,0,0,0.010666666666666668,45.69600000000001,0)" xlink:href="#az"/></g><g id="X"><use transform="matrix(0.010666666666666668,0,0,0.010666666666666668,0,0)" xlink:href="#aq"/><use transform="matrix(0.010666666666666668,0,0,0.010666666666666668,9.962666666666667,0)" xlink:href="#au"/><use transform="matrix(0.010666666666666668,0,0,0.010666666666666668,18.560000000000002,0)" xlink:href="#at"/><use transform="matrix(0.010666666666666668,0,0,0.010666666666666668,29.73866666666667,0)" xlink:href="#aK"/><use transform="matrix(0.010666666666666668,0,0,0.010666666666666668,40.55466666666667,0)" xlink:href="#az"/><use transform="matrix(0.010666666666666668,0,0,0.010666666666666668,48.51199999999999,0)" xlink:href="#at"/><use transform="matrix(0.010666666666666668,0,0,0.010666666666666668,59.69066666666667,0)" xlink:href="#ba"/></g><g id="Y"><use transform="matrix(0.010666666666666668,0,0,0.010666666666666668,0,0)" xlink:href="#aQ"/><use transform="matrix(0.010666666666666668,0,0,0.010666666666666668,5.461333333333334,0)" xlink:href="#ao"/><use transform="matrix(0.010666666666666668,0,0,0.010666666666666668,10.922666666666668,0)" xlink:href="#ay"/><use transform="matrix(0.010666666666666668,0,0,0.010666666666666668,22.784000000000002,0)" xlink:href="#aA"/></g><g id="Z"><use transform="matrix(0.010666666666666668,0,0,0.010666666666666668,0,0)" xlink:href="#bf"/><use transform="matrix(0.010666666666666668,0,0,0.010666666666666668,11.306666666666668,0)" xlink:href="#az"/><use transform="matrix(0.010666666666666668,0,0,0.010666666666666668,19.264000000000003,0)" xlink:href="#ar"/><use transform="matrix(0.010666666666666668,0,0,0.010666666666666668,31.125333333333337,0)" xlink:href="#au"/><use transform="matrix(0.010666666666666668,0,0,0.010666666666666668,39.72266666666667,0)" xlink:href="#av"/><use transform="matrix(0.010666666666666668,0,0,0.010666666666666668,50.64533333333334,0)" xlink:href="#aJ"/><use transform="matrix(0.010666666666666668,0,0,0.010666666666666668,62.570666666666675,0)" xlink:href="#ar"/><use transform="matrix(0.010666666666666668,0,0,0.010666666666666668,74.43200000000002,0)" xlink:href="#ar"/><use transform="matrix(0.010666666666666668,0,0,0.010666666666666668,86.29333333333335,0)" xlink:href="#aA"/></g><g id="aa"><use transform="matrix(0.010666666666666668,0,0,0.010666666666666668,0,0)" xlink:href="#as"/><use transform="matrix(0.010666666666666668,0,0,0.010666666666666668,10.922666666666668,0)" xlink:href="#ao"/><use transform="matrix(0.010666666666666668,0,0,0.010666666666666668,16.384,0)" xlink:href="#aK"/></g><path fill-opacity=".75" d="M212 15C136 15 88-34 88-110s48-126 124-126 125 50 125 126c0 77-49 125-125 125" id="bp"/><g id="ab"><use transform="matrix(0.010666666666666668,0,0,0.010666666666666668,0,0)" xlink:href="#aK"/><use transform="matrix(0.010666666666666668,0,0,0.010666666666666668,10.816,0)" xlink:href="#aJ"/><use transform="matrix(0.010666666666666668,0,0,0.010666666666666668,22.741333333333337,0)" xlink:href="#ap"/><use transform="matrix(0.010666666666666668,0,0,0.010666666666666668,32.00000000000001,0)" xlink:href="#az"/><use transform="matrix(0.010666666666666668,0,0,0.010666666666666668,39.95733333333334,0)" xlink:href="#au"/><use transform="matrix(0.010666666666666668,0,0,0.010666666666666668,48.14933333333335,0)" xlink:href="#aK"/><use transform="matrix(0.010666666666666668,0,0,0.010666666666666668,58.96533333333335,0)" xlink:href="#aq"/><use transform="matrix(0.010666666666666668,0,0,0.010666666666666668,68.92800000000001,0)" xlink:href="#az"/><use transform="matrix(0.010666666666666668,0,0,0.010666666666666668,76.88533333333335,0)" xlink:href="#bp"/><use transform="matrix(0.010666666666666668,0,0,0.010666666666666668,81.40800000000002,0)" xlink:href="#aM"/><use transform="matrix(0.010666666666666668,0,0,0.010666666666666668,86.82666666666668,0)" xlink:href="#ap"/></g></defs></g></svg>